# xmcd
#
# Track frame offsets:
#	150
#	18287
#	32308
#	53198
#	69223
#	84636
#	103258
#	122101
#	133713
#	147049
#	159914
#	176751
#
# Disc length: 2554 seconds
#
# Revision: 0
# Processed by: cddbd v1.5.2PL0 Copyright (c) Steve Scherf et al.
# Submitted via: EasyCDDAExtractor 16.0.1.1
#
DISCID=9709f80c
DTITLE=Charles Brown - Driftin' Blues
DYEAR=1963
DGENRE=Blues
TTITLE0=Driftin'
TTITLE1=Our Day Will Come
TTITLE2=Go Away Little Girl
TTITLE3=Days Of Wine And Roses
TTITLE4=My Silent Love
TTITLE5=Throught The Courtesy Of Love
TTITLE6=Since I Fell For You
TTITLE7=More (Theme From Mondo Cane)
TTITLE8=So Long
TTITLE9=You Are My First Love
TTITLE10=To You My Love
TTITLE11=Not In My Wildest Dreams
EXTD=
EXTT0=
EXTT1=
EXTT2=
EXTT3=
EXTT4=
EXTT5=
EXTT6=
EXTT7=
EXTT8=
EXTT9=
EXTT10=
EXTT11=
PLAYORDER=
